<?xml version="1.0" encoding="UTF-8"?>
<svg width="100" height="300" viewBox="0 0 100 300" xmlns="http://www.w3.org/2000/svg">
  <path d="M50,0 C50,0 50,50 30,100 C50,150 40,200 60,250 C50,270 55,290 50,300" 
        stroke="#4a7c59" 
        stroke-width="3" 
        fill="none" 
        stroke-linecap="round"/>
  <path d="M50,40 C60,50 70,45 80,50" 
        stroke="#4a7c59" 
        stroke-width="2" 
        fill="none" 
        stroke-linecap="round"/>
  <path d="M50,70 C40,80 30,75 20,80" 
        stroke="#4a7c59" 
        stroke-width="2" 
        fill="none" 
        stroke-linecap="round"/>
  <path d="M50,110 C60,120 70,115 80,120" 
        stroke="#4a7c59" 
        stroke-width="2" 
        fill="none" 
        stroke-linecap="round"/>
  <path d="M50,150 C40,160 30,155 20,160" 
        stroke="#4a7c59" 
        stroke-width="2" 
        fill="none" 
        stroke-linecap="round"/>
  <path d="M50,190 C60,200 70,195 80,200" 
        stroke="#4a7c59" 
        stroke-width="2" 
        fill="none" 
        stroke-linecap="round"/>
  <path d="M50,230 C40,240 30,235 20,240" 
        stroke="#4a7c59" 
        stroke-width="2" 
        fill="none" 
        stroke-linecap="round"/>
  <ellipse cx="80" cy="50" rx="5" ry="8" fill="#7fb685" opacity="0.8"/>
  <ellipse cx="20" cy="80" rx="5" ry="8" fill="#7fb685" opacity="0.8"/>
  <ellipse cx="80" cy="120" rx="5" ry="8" fill="#7fb685" opacity="0.8"/>
  <ellipse cx="20" cy="160" rx="5" ry="8" fill="#7fb685" opacity="0.8"/>
  <ellipse cx="80" cy="200" rx="5" ry="8" fill="#7fb685" opacity="0.8"/>
  <ellipse cx="20" cy="240" rx="5" ry="8" fill="#7fb685" opacity="0.8"/>
</svg>
