<?xml version="1.0" encoding="UTF-8"?>
<svg width="100" height="300" viewBox="0 0 100 300" xmlns="http://www.w3.org/2000/svg">
  <path d="M50,0 C50,0 70,50 40,100 C60,150 30,200 50,250 C40,270 60,290 50,300" 
        stroke="#4a7c59" 
        stroke-width="3" 
        fill="none" 
        stroke-linecap="round"/>
  <path d="M50,50 C40,60 30,55 20,60" 
        stroke="#4a7c59" 
        stroke-width="2" 
        fill="none" 
        stroke-linecap="round"/>
  <path d="M50,80 C60,90 70,85 80,90" 
        stroke="#4a7c59" 
        stroke-width="2" 
        fill="none" 
        stroke-linecap="round"/>
  <path d="M50,120 C40,130 30,125 20,130" 
        stroke="#4a7c59" 
        stroke-width="2" 
        fill="none" 
        stroke-linecap="round"/>
  <path d="M50,160 C60,170 70,165 80,170" 
        stroke="#4a7c59" 
        stroke-width="2" 
        fill="none" 
        stroke-linecap="round"/>
  <path d="M50,200 C40,210 30,205 20,210" 
        stroke="#4a7c59" 
        stroke-width="2" 
        fill="none" 
        stroke-linecap="round"/>
  <path d="M50,240 C60,250 70,245 80,250" 
        stroke="#4a7c59" 
        stroke-width="2" 
        fill="none" 
        stroke-linecap="round"/>
  <ellipse cx="20" cy="60" rx="5" ry="8" fill="#7fb685" opacity="0.8"/>
  <ellipse cx="80" cy="90" rx="5" ry="8" fill="#7fb685" opacity="0.8"/>
  <ellipse cx="20" cy="130" rx="5" ry="8" fill="#7fb685" opacity="0.8"/>
  <ellipse cx="80" cy="170" rx="5" ry="8" fill="#7fb685" opacity="0.8"/>
  <ellipse cx="20" cy="210" rx="5" ry="8" fill="#7fb685" opacity="0.8"/>
  <ellipse cx="80" cy="250" rx="5" ry="8" fill="#7fb685" opacity="0.8"/>
</svg>
