<?xml version="1.0" encoding="UTF-8"?>
<svg width="100" height="300" viewBox="0 0 100 300" xmlns="http://www.w3.org/2000/svg">
  <path d="M50,0 C50,0 30,50 60,100 C40,150 70,200 50,250 C60,270 40,290 50,300" 
        stroke="#4a7c59" 
        stroke-width="3" 
        fill="none" 
        stroke-linecap="round"/>
  <path d="M50,50 C60,60 70,55 80,60" 
        stroke="#4a7c59" 
        stroke-width="2" 
        fill="none" 
        stroke-linecap="round"/>
  <path d="M50,80 C40,90 30,85 20,90" 
        stroke="#4a7c59" 
        stroke-width="2" 
        fill="none" 
        stroke-linecap="round"/>
  <path d="M50,120 C60,130 70,125 80,130" 
        stroke="#4a7c59" 
        stroke-width="2" 
        fill="none" 
        stroke-linecap="round"/>
  <path d="M50,160 C40,170 30,165 20,170" 
        stroke="#4a7c59" 
        stroke-width="2" 
        fill="none" 
        stroke-linecap="round"/>
  <path d="M50,200 C60,210 70,205 80,210" 
        stroke="#4a7c59" 
        stroke-width="2" 
        fill="none" 
        stroke-linecap="round"/>
  <path d="M50,240 C40,250 30,245 20,250" 
        stroke="#4a7c59" 
        stroke-width="2" 
        fill="none" 
        stroke-linecap="round"/>
  <ellipse cx="80" cy="60" rx="5" ry="8" fill="#7fb685" opacity="0.8"/>
  <ellipse cx="20" cy="90" rx="5" ry="8" fill="#7fb685" opacity="0.8"/>
  <ellipse cx="80" cy="130" rx="5" ry="8" fill="#7fb685" opacity="0.8"/>
  <ellipse cx="20" cy="170" rx="5" ry="8" fill="#7fb685" opacity="0.8"/>
  <ellipse cx="80" cy="210" rx="5" ry="8" fill="#7fb685" opacity="0.8"/>
  <ellipse cx="20" cy="250" rx="5" ry="8" fill="#7fb685" opacity="0.8"/>
</svg>
