<?xml version="1.0" encoding="UTF-8" standalone="no"?>
<svg xmlns="http://www.w3.org/2000/svg" width="32" height="32" viewBox="0 0 32 32">
  <path d="M16,4 C14,4 12,5 11,6 C10,7 9,8 9,9 C9,10 10,11 11,12 C12,13 13,14 13,15 C13,16 12,17 11,18 C10,19 9,20 9,21 C9,22 10,23 11,24 C12,25 13,26 14,27 C15,28 16,29 16,29 C16,29 17,28 18,27 C19,26 20,25 21,24 C22,23 23,22 23,21 C23,20 22,19 21,18 C20,17 19,16 19,15 C19,14 20,13 21,12 C22,11 23,10 23,9 C23,8 22,7 21,6 C20,5 18,4 16,4 Z" fill="#0a3d62" stroke="#f5b642" stroke-width="1"/>
</svg>
