<?xml version="1.0" encoding="UTF-8" standalone="no"?>
<svg xmlns="http://www.w3.org/2000/svg" width="100" height="120" viewBox="0 0 100 120">
  <g>
    <!-- Hanging pot -->
    <ellipse cx="50" cy="30" rx="30" ry="10" fill="#ffffff" stroke="#f5b642" stroke-width="2"/>
    <path d="M20,30 C20,50 30,70 50,70 C70,70 80,50 80,30" fill="none" stroke="#f5b642" stroke-width="2"/>
    
    <!-- Hanging strings -->
    <line x1="30" y1="30" x2="30" y2="5" stroke="#f5b642" stroke-width="1"/>
    <line x1="50" y1="30" x2="50" y2="0" stroke="#f5b642" stroke-width="1"/>
    <line x1="70" y1="30" x2="70" y2="5" stroke="#f5b642" stroke-width="1"/>
    
    <!-- Plant leaves -->
    <path d="M40,40 C30,20 50,10 60,30" fill="#4CAF50" stroke="#2E7D32" stroke-width="1"/>
    <path d="M60,40 C70,20 50,10 40,30" fill="#4CAF50" stroke="#2E7D32" stroke-width="1"/>
    <path d="M45,50 C30,40 40,20 50,35" fill="#4CAF50" stroke="#2E7D32" stroke-width="1"/>
    <path d="M55,50 C70,40 60,20 50,35" fill="#4CAF50" stroke="#2E7D32" stroke-width="1"/>
    <path d="M50,60 C40,50 30,60 40,70" fill="#4CAF50" stroke="#2E7D32" stroke-width="1"/>
    <path d="M50,60 C60,50 70,60 60,70" fill="#4CAF50" stroke="#2E7D32" stroke-width="1"/>
    
    <!-- Dried elements -->
    <path d="M35,35 C25,25 20,15 25,10" fill="none" stroke="#D7CCC8" stroke-width="1"/>
    <path d="M65,35 C75,25 80,15 75,10" fill="none" stroke="#D7CCC8" stroke-width="1"/>
    <path d="M40,45 C30,40 25,30 20,25" fill="none" stroke="#D7CCC8" stroke-width="1"/>
    <path d="M60,45 C70,40 75,30 80,25" fill="none" stroke="#D7CCC8" stroke-width="1"/>
  </g>
</svg>
